<svg width="95" height="24" viewBox="0 0 95 24" fill="none" xmlns="http://www.w3.org/2000/svg">
<path d="M5.672 0.48V14.04H12.752V18H0.752V0.48H5.672ZM17.8375 7.008C18.9895 5.856 20.6135 5.28 22.7095 5.28C24.8055 5.28 26.4295 5.856 27.5815 7.008C28.7335 8.16 29.3095 9.744 29.3095 11.76C29.3095 13.776 28.7335 15.36 27.5815 16.512C26.4295 17.664 24.8055 18.24 22.7095 18.24C20.6135 18.24 18.9895 17.664 17.8375 16.512C16.6855 15.36 16.1095 13.776 16.1095 11.76C16.1095 9.744 16.6855 8.16 17.8375 7.008ZM21.1015 14.232C21.4535 14.728 21.9895 14.976 22.7095 14.976C23.4295 14.976 23.9655 14.728 24.3175 14.232C24.6695 13.736 24.8455 12.912 24.8455 11.76C24.8455 10.608 24.6695 9.784 24.3175 9.288C23.9655 8.792 23.4295 8.544 22.7095 8.544C21.9895 8.544 21.4535 8.792 21.1015 9.288C20.7495 9.784 20.5735 10.608 20.5735 11.76C20.5735 12.912 20.7495 13.736 21.1015 14.232ZM37.7042 5.52L37.8002 7.2H37.8482C38.8882 5.92 40.1202 5.28 41.5442 5.28C43.0482 5.28 44.2402 5.848 45.1202 6.984C46.0162 8.104 46.4642 9.696 46.4642 11.76C46.4642 13.776 46.0002 15.36 45.0722 16.512C44.1602 17.664 42.9842 18.24 41.5442 18.24C40.1362 18.24 38.9922 17.68 38.1122 16.56H38.0642V23.28H33.5042V5.52H37.7042ZM42.1442 11.76C42.1442 10.768 41.9602 10.024 41.5922 9.528C41.2402 9.016 40.7442 8.76 40.1042 8.76C39.4802 8.76 38.9842 9.016 38.6162 9.528C38.2482 10.024 38.0642 10.728 38.0642 11.64V11.88C38.0642 12.808 38.2482 13.52 38.6162 14.016C38.9842 14.512 39.4802 14.76 40.1042 14.76C40.6962 14.76 41.1842 14.504 41.5682 13.992C41.9522 13.464 42.1442 12.72 42.1442 11.76ZM54.962 5.52L55.058 7.2H55.106C56.146 5.92 57.378 5.28 58.802 5.28C60.306 5.28 61.498 5.848 62.378 6.984C63.274 8.104 63.722 9.696 63.722 11.76C63.722 13.776 63.258 15.36 62.33 16.512C61.418 17.664 60.242 18.24 58.802 18.24C57.394 18.24 56.25 17.68 55.37 16.56H55.322V23.28H50.762V5.52H54.962ZM59.402 11.76C59.402 10.768 59.218 10.024 58.85 9.528C58.498 9.016 58.002 8.76 57.362 8.76C56.738 8.76 56.242 9.016 55.874 9.528C55.506 10.024 55.322 10.728 55.322 11.64V11.88C55.322 12.808 55.506 13.52 55.874 14.016C56.242 14.512 56.738 14.76 57.362 14.76C57.954 14.76 58.442 14.504 58.826 13.992C59.21 13.464 59.402 12.72 59.402 11.76ZM71.8782 10.56H75.9342C75.9342 9.04 75.2542 8.28 73.8942 8.28C72.6622 8.28 71.9902 9.04 71.8782 10.56ZM71.9262 13.2C72.1982 14.48 73.1102 15.12 74.6622 15.12C75.8622 15.12 77.0062 14.84 78.0942 14.28L79.0542 17.28C77.5822 17.92 75.9822 18.24 74.2542 18.24C72.1902 18.24 70.5342 17.656 69.2862 16.488C68.0382 15.32 67.4142 13.744 67.4142 11.76C67.4142 9.76 67.9822 8.184 69.1182 7.032C70.2702 5.864 71.8222 5.28 73.7742 5.28C75.7742 5.28 77.3342 5.848 78.4542 6.984C79.5742 8.104 80.1342 9.696 80.1342 11.76C80.1342 12.192 80.0942 12.672 80.0142 13.2H71.9262ZM94.5139 5.28V8.88C92.7219 8.88 91.3699 9.216 90.4579 9.888C89.5459 10.56 89.0899 11.504 89.0899 12.72V18H84.4339V5.52H88.7299L88.7539 7.92H88.8019C90.1779 6.16 92.0819 5.28 94.5139 5.28Z" fill="#F61067"/>
</svg>
